<svg width="162" height="100" viewBox="0 0 162 100" fill="none" xmlns="http://www.w3.org/2000/svg">
<g id="ROCKPAPERSCISSORS." filter="url(#filter0_d)">
<path fill-rule="evenodd" clip-rule="evenodd" d="M39.5199 28.24C38.1066 28.9867 36.4799 29.36 34.6399 29.36C32.7999 29.36 31.1799 28.9867 29.7799 28.24C28.3799 27.4933 27.2933 26.44 26.5199 25.08C25.7466 23.72 25.3599 22.1333 25.3599 20.32V9.68C25.3599 7.89333 25.7466 6.32 26.5199 4.96C27.2933 3.6 28.3799 2.54667 29.7799 1.8C31.1799 1.05333 32.7999 0.68 34.6399 0.68C36.4799 0.68 38.1066 1.05333 39.5199 1.8C40.9333 2.54667 42.0266 3.6 42.7999 4.96C43.5733 6.32 43.9599 7.89333 43.9599 9.68V20.32C43.9599 22.1333 43.5733 23.72 42.7999 25.08C42.0266 26.44 40.9333 27.4933 39.5199 28.24ZM9.27995 29C9.41328 29 9.52661 28.9533 9.61995 28.86C9.71328 28.7667 9.75995 28.6533 9.75995 28.52V17.6C9.75995 17.4667 9.82661 17.4 9.95995 17.4H12.4799C12.5599 17.4 12.6266 17.4533 12.6799 17.56L16.7199 28.6C16.7999 28.8667 16.9866 29 17.2799 29H22.1599C22.4533 29 22.5999 28.88 22.5999 28.64C22.5999 28.56 22.5866 28.4933 22.5599 28.44L17.9999 16.96C17.9466 16.8267 17.9866 16.7333 18.1199 16.68C19.4799 16.0667 20.5333 15.1333 21.2799 13.88C22.0266 12.6267 22.3999 11.1467 22.3999 9.44C22.3999 7.78667 22.0666 6.32 21.3999 5.04C20.7333 3.76 19.7866 2.76667 18.5599 2.06C17.3333 1.35333 15.9333 1 14.3599 1H4.59995C4.46661 1 4.35328 1.04667 4.25995 1.14C4.16661 1.23333 4.11995 1.34667 4.11995 1.48V28.52C4.11995 28.6533 4.16661 28.7667 4.25995 28.86C4.35328 28.9533 4.46661 29 4.59995 29H9.27995ZM13.4399 13.08H9.95995C9.82661 13.08 9.75995 13.0133 9.75995 12.88V6.04C9.75995 5.90667 9.82661 5.84 9.95995 5.84H13.4399C14.4266 5.84 15.2266 6.16667 15.8399 6.82C16.4533 7.47333 16.7599 8.36 16.7599 9.48C16.7599 10.5733 16.4533 11.4467 15.8399 12.1C15.2266 12.7533 14.4266 13.08 13.4399 13.08ZM34.6399 24.52C33.5466 24.52 32.6666 24.1533 31.9999 23.42C31.3333 22.6867 30.9999 21.7333 30.9999 20.56V9.52C30.9999 8.32 31.3333 7.35333 31.9999 6.62C32.6666 5.88667 33.5466 5.52 34.6399 5.52C35.7599 5.52 36.6533 5.88667 37.3199 6.62C37.9866 7.35333 38.3199 8.32 38.3199 9.52V20.56C38.3199 21.7333 37.9866 22.6867 37.3199 23.42C36.6533 24.1533 35.7599 24.52 34.6399 24.52ZM64.4199 25.24C63.6599 26.5467 62.5866 27.5533 61.1999 28.26C59.8133 28.9667 58.2133 29.32 56.3999 29.32C54.5866 29.32 52.9866 28.96 51.5999 28.24C50.2133 27.52 49.1399 26.4933 48.3799 25.16C47.6199 23.8267 47.2399 22.28 47.2399 20.52V9.4C47.2399 7.66667 47.6199 6.14 48.3799 4.82C49.1399 3.5 50.2133 2.48 51.5999 1.76C52.9866 1.04 54.5866 0.68 56.3999 0.68C58.2133 0.68 59.8133 1.03333 61.1999 1.74C62.5866 2.44667 63.6599 3.44 64.4199 4.72C65.1799 6 65.5599 7.49333 65.5599 9.2V9.4C65.5599 9.53333 65.5133 9.65333 65.4199 9.76C65.3266 9.86667 65.2133 9.92 65.0799 9.92L60.3999 10.12C60.0799 10.12 59.9199 9.97333 59.9199 9.68V9.16C59.9199 8.06667 59.5999 7.18667 58.9599 6.52C58.3199 5.85333 57.4666 5.52 56.3999 5.52C55.3333 5.52 54.4799 5.85333 53.8399 6.52C53.1999 7.18667 52.8799 8.06667 52.8799 9.16V20.88C52.8799 21.9733 53.1999 22.8467 53.8399 23.5C54.4799 24.1533 55.3333 24.48 56.3999 24.48C57.4666 24.48 58.3199 24.1533 58.9599 23.5C59.5999 22.8467 59.9199 21.9733 59.9199 20.88V20.36C59.9199 20.0667 60.0799 19.92 60.3999 19.92L65.0799 20.12C65.2133 20.12 65.3266 20.1667 65.4199 20.26C65.5133 20.3533 65.5599 20.4667 65.5599 20.6V20.72C65.5599 22.4267 65.1799 23.9333 64.4199 25.24ZM74.3199 29C74.4533 29 74.5666 28.9533 74.6599 28.86C74.7533 28.7667 74.7999 28.6533 74.7999 28.52V20.52C74.7999 20.4667 74.8266 20.3867 74.8799 20.28L76.6799 17.68C76.7333 17.6 76.7866 17.56 76.8399 17.56C76.8933 17.56 76.9333 17.6 76.9599 17.68L82.6399 28.64C82.7733 28.88 82.9599 29 83.1999 29H88.3199C88.6133 29 88.7599 28.8933 88.7599 28.68C88.7599 28.6267 88.7333 28.5467 88.6799 28.44L80.8399 13.32C80.8133 13.2133 80.8133 13.12 80.8399 13.04L88.2399 1.56C88.3466 1.4 88.3666 1.26667 88.2999 1.16C88.2333 1.05333 88.1066 1 87.9199 1H82.7599C82.5199 1 82.3333 1.10667 82.1999 1.32L75.0399 12.2C75.0133 12.28 74.9666 12.3067 74.8999 12.28C74.8333 12.2533 74.7999 12.2 74.7999 12.12V1.48C74.7999 1.34667 74.7533 1.23333 74.6599 1.14C74.5666 1.04667 74.4533 1 74.3199 1H69.6399C69.5066 1 69.3933 1.04667 69.2999 1.14C69.2066 1.23333 69.1599 1.34667 69.1599 1.48V28.52C69.1599 28.6533 69.2066 28.7667 69.2999 28.86C69.3933 28.9533 69.5066 29 69.6399 29H74.3199ZM9.49995 60.86C9.40661 60.9533 9.29328 61 9.15995 61H4.47995C4.34661 61 4.23328 60.9533 4.13995 60.86C4.04661 60.7667 3.99995 60.6533 3.99995 60.52V33.44C3.99995 33.3067 4.04661 33.1933 4.13995 33.1C4.23328 33.0067 4.34661 32.96 4.47995 32.96H14.1599C15.7599 32.96 17.1799 33.32 18.4199 34.04C19.6599 34.76 20.6199 35.7733 21.2999 37.08C21.9799 38.3867 22.3199 39.88 22.3199 41.56C22.3199 43.2133 21.9799 44.6733 21.2999 45.94C20.6199 47.2067 19.6599 48.1867 18.4199 48.88C17.1799 49.5733 15.7599 49.92 14.1599 49.92H9.83995C9.70661 49.92 9.63995 49.9867 9.63995 50.12V60.52C9.63995 60.6533 9.59328 60.7667 9.49995 60.86ZM13.2399 45.44H9.83995C9.70661 45.44 9.63995 45.3733 9.63995 45.24V38.04C9.63995 37.9067 9.70661 37.84 9.83995 37.84H13.2399C14.2799 37.84 15.1133 38.1867 15.7399 38.88C16.3666 39.5733 16.6799 40.5067 16.6799 41.68C16.6799 42.8267 16.3666 43.74 15.7399 44.42C15.1133 45.1 14.2799 45.44 13.2399 45.44ZM29.8799 60.6C29.7999 60.8667 29.6266 61 29.3599 61H24.5199C24.1733 61 24.0399 60.8267 24.1199 60.48L31.3199 33.4C31.3999 33.1333 31.5866 33 31.8799 33H37.6799C37.9733 33 38.1599 33.1333 38.2399 33.4L45.4399 60.48L45.4799 60.64C45.4799 60.88 45.3333 61 45.0399 61H40.1599C39.8666 61 39.6799 60.8667 39.5999 60.6L38.6799 56.68C38.6533 56.5733 38.5866 56.52 38.4799 56.52H30.9999C30.8933 56.52 30.8266 56.5733 30.7999 56.68L29.8799 60.6ZM37.3599 52.16H32.0799C32.0266 52.16 31.9733 52.14 31.9199 52.1C31.8666 52.06 31.8533 52 31.8799 51.92L34.5599 40.32C34.5866 40.2133 34.6266 40.16 34.6799 40.16C34.7333 40.16 34.7733 40.2133 34.7999 40.32L37.5599 51.92C37.5866 52 37.5733 52.06 37.5199 52.1C37.4666 52.14 37.4133 52.16 37.3599 52.16ZM53.8199 60.86C53.7266 60.9533 53.6133 61 53.4799 61H48.7999C48.6666 61 48.5533 60.9533 48.4599 60.86C48.3666 60.7667 48.3199 60.6533 48.3199 60.52V33.44C48.3199 33.3067 48.3666 33.1933 48.4599 33.1C48.5533 33.0067 48.6666 32.96 48.7999 32.96H58.4799C60.0799 32.96 61.4999 33.32 62.7399 34.04C63.9799 34.76 64.9399 35.7733 65.6199 37.08C66.2999 38.3867 66.6399 39.88 66.6399 41.56C66.6399 43.2133 66.2999 44.6733 65.6199 45.94C64.9399 47.2067 63.9799 48.1867 62.7399 48.88C61.4999 49.5733 60.0799 49.92 58.4799 49.92H54.1599C54.0266 49.92 53.9599 49.9867 53.9599 50.12V60.52C53.9599 60.6533 53.9133 60.7667 53.8199 60.86ZM57.5599 45.44H54.1599C54.0266 45.44 53.9599 45.3733 53.9599 45.24V38.04C53.9599 37.9067 54.0266 37.84 54.1599 37.84H57.5599C58.5999 37.84 59.4333 38.1867 60.0599 38.88C60.6866 39.5733 60.9999 40.5067 60.9999 41.68C60.9999 42.8267 60.6866 43.74 60.0599 44.42C59.4333 45.1 58.5999 45.44 57.5599 45.44ZM86.5799 60.86C86.4866 60.9533 86.3733 61 86.2399 61H70.16C70.0266 61 69.9133 60.9533 69.8199 60.86C69.7266 60.7667 69.6799 60.6533 69.6799 60.52V33.48C69.6799 33.3467 69.7266 33.2333 69.8199 33.14C69.9133 33.0467 70.0266 33 70.16 33H86.2399C86.3733 33 86.4866 33.0467 86.5799 33.14C86.6733 33.2333 86.7199 33.3467 86.7199 33.48V37.36C86.7199 37.4933 86.6733 37.6067 86.5799 37.7C86.4866 37.7933 86.3733 37.84 86.2399 37.84H75.5199C75.3866 37.84 75.3199 37.9067 75.3199 38.04V44.28C75.3199 44.4133 75.3866 44.48 75.5199 44.48H82.2C82.3333 44.48 82.4466 44.5267 82.5399 44.62C82.6333 44.7133 82.6799 44.8267 82.6799 44.96V48.84C82.6799 48.9733 82.6333 49.0867 82.5399 49.18C82.4466 49.2733 82.3333 49.32 82.2 49.32H75.5199C75.3866 49.32 75.3199 49.3867 75.3199 49.52V55.96C75.3199 56.0933 75.3866 56.16 75.5199 56.16H86.2399C86.3733 56.16 86.4866 56.2067 86.5799 56.3C86.6733 56.3933 86.7199 56.5067 86.7199 56.64V60.52C86.7199 60.6533 86.6733 60.7667 86.5799 60.86ZM95.28 61C95.4133 61 95.5266 60.9533 95.6199 60.86C95.7133 60.7667 95.7599 60.6533 95.7599 60.52V49.6C95.7599 49.4667 95.8266 49.4 95.9599 49.4H98.4799C98.56 49.4 98.6266 49.4533 98.6799 49.56L102.72 60.6C102.8 60.8667 102.987 61 103.28 61H108.16C108.453 61 108.6 60.88 108.6 60.64C108.6 60.56 108.587 60.4933 108.56 60.44L104 48.96C103.947 48.8267 103.987 48.7333 104.12 48.68C105.48 48.0667 106.533 47.1333 107.28 45.88C108.027 44.6267 108.4 43.1467 108.4 41.44C108.4 39.7867 108.067 38.32 107.4 37.04C106.733 35.76 105.787 34.7667 104.56 34.06C103.333 33.3533 101.933 33 100.36 33H90.6C90.4666 33 90.3533 33.0467 90.2599 33.14C90.1666 33.2333 90.1199 33.3467 90.1199 33.48V60.52C90.1199 60.6533 90.1666 60.7667 90.2599 60.86C90.3533 60.9533 90.4666 61 90.6 61H95.28ZM95.9599 45.08H99.4399C100.427 45.08 101.227 44.7533 101.84 44.1C102.453 43.4467 102.76 42.5733 102.76 41.48C102.76 40.36 102.453 39.4733 101.84 38.82C101.227 38.1667 100.427 37.84 99.4399 37.84H95.9599C95.8266 37.84 95.7599 37.9067 95.7599 38.04V44.88C95.7599 45.0133 95.8266 45.08 95.9599 45.08ZM12.5199 93.32C15.2399 93.32 17.4199 92.6067 19.0599 91.18C20.6999 89.7533 21.5199 87.8267 21.5199 85.4C21.5199 84.04 21.2266 82.88 20.6399 81.92C20.0533 80.96 19.3266 80.1667 18.4599 79.54C17.5933 78.9133 16.3866 78.1733 14.8399 77.32L13.9999 76.84C12.6399 76.1733 11.6266 75.6333 10.9599 75.22C10.2933 74.8067 9.79995 74.3733 9.47995 73.92C9.15995 73.4667 8.99995 72.9333 8.99995 72.32C8.99995 71.44 9.27328 70.7533 9.81995 70.26C10.3666 69.7667 11.1199 69.52 12.0799 69.52C13.2266 69.52 14.1333 69.84 14.7999 70.48C15.4666 71.12 15.7999 71.92 15.7999 72.88V73.6C15.7999 73.7333 15.8466 73.8467 15.9399 73.94C16.0333 74.0333 16.1466 74.08 16.2799 74.08H20.8799C21.0133 74.08 21.1266 74.0333 21.2199 73.94C21.3133 73.8467 21.3599 73.7333 21.3599 73.6V72.8C21.3599 71.2 20.9733 69.7867 20.1999 68.56C19.4266 67.3333 18.3466 66.38 16.9599 65.7C15.5733 65.02 13.9866 64.68 12.1999 64.68C10.4933 64.68 8.97328 64.9933 7.63995 65.62C6.30661 66.2467 5.27328 67.14 4.53995 68.3C3.80661 69.46 3.43995 70.8133 3.43995 72.36C3.43995 73.9067 3.79995 75.2267 4.51995 76.32C5.23995 77.4133 6.10661 78.3067 7.11995 79C8.13328 79.6933 9.43995 80.44 11.0399 81.24C12.3466 81.9067 13.3133 82.4333 13.9399 82.82C14.5666 83.2067 15.0533 83.62 15.3999 84.06C15.7466 84.5 15.9199 85.0267 15.9199 85.64C15.9199 86.4667 15.6466 87.1467 15.0999 87.68C14.5533 88.2133 13.7599 88.48 12.7199 88.48C11.5466 88.48 10.6133 88.1667 9.91995 87.54C9.22661 86.9133 8.87995 86.1333 8.87995 85.2V84.44C8.87995 84.3067 8.83328 84.1933 8.73995 84.1C8.64661 84.0067 8.53328 83.96 8.39995 83.96H3.79995C3.66661 83.96 3.55328 84.0067 3.45995 84.1C3.36661 84.1933 3.31995 84.3067 3.31995 84.44V85.48C3.31995 87.0267 3.69995 88.3933 4.45995 89.58C5.21995 90.7667 6.29328 91.6867 7.67995 92.34C9.06661 92.9933 10.6799 93.32 12.5199 93.32ZM41.6199 89.24C40.8599 90.5467 39.7866 91.5533 38.3999 92.26C37.0133 92.9667 35.4133 93.32 33.5999 93.32C31.7866 93.32 30.1866 92.96 28.7999 92.24C27.4133 91.52 26.3399 90.4933 25.5799 89.16C24.8199 87.8267 24.4399 86.28 24.4399 84.52V73.4C24.4399 71.6667 24.8199 70.14 25.5799 68.82C26.3399 67.5 27.4133 66.48 28.7999 65.76C30.1866 65.04 31.7866 64.68 33.5999 64.68C35.4133 64.68 37.0133 65.0333 38.3999 65.74C39.7866 66.4467 40.8599 67.44 41.6199 68.72C42.3799 70 42.7599 71.4933 42.7599 73.2V73.4C42.7599 73.5333 42.7133 73.6533 42.6199 73.76C42.5266 73.8667 42.4133 73.92 42.2799 73.92L37.5999 74.12C37.2799 74.12 37.1199 73.9733 37.1199 73.68V73.16C37.1199 72.0667 36.7999 71.1867 36.1599 70.52C35.5199 69.8533 34.6666 69.52 33.5999 69.52C32.5333 69.52 31.6799 69.8533 31.0399 70.52C30.3999 71.1867 30.0799 72.0667 30.0799 73.16V84.88C30.0799 85.9733 30.3999 86.8467 31.0399 87.5C31.6799 88.1533 32.5333 88.48 33.5999 88.48C34.6666 88.48 35.5199 88.1533 36.1599 87.5C36.7999 86.8467 37.1199 85.9733 37.1199 84.88V84.36C37.1199 84.0667 37.2799 83.92 37.5999 83.92L42.2799 84.12C42.4133 84.12 42.5266 84.1667 42.6199 84.26C42.7133 84.3533 42.7599 84.4667 42.7599 84.6V84.72C42.7599 86.4267 42.3799 87.9333 41.6199 89.24ZM51.5199 93C51.6533 93 51.7666 92.9533 51.8599 92.86C51.9533 92.7667 51.9999 92.6533 51.9999 92.52V65.48C51.9999 65.3467 51.9533 65.2333 51.8599 65.14C51.7666 65.0467 51.6533 65 51.5199 65H46.8399C46.7066 65 46.5933 65.0467 46.4999 65.14C46.4066 65.2333 46.3599 65.3467 46.3599 65.48V92.52C46.3599 92.6533 46.4066 92.7667 46.4999 92.86C46.5933 92.9533 46.7066 93 46.8399 93H51.5199ZM71.1399 91.18C69.4999 92.6067 67.3199 93.32 64.5999 93.32C62.7599 93.32 61.1466 92.9933 59.7599 92.34C58.3733 91.6867 57.2999 90.7667 56.5399 89.58C55.7799 88.3933 55.3999 87.0267 55.3999 85.48V84.44C55.3999 84.3067 55.4466 84.1933 55.5399 84.1C55.6333 84.0067 55.7466 83.96 55.8799 83.96H60.4799C60.6133 83.96 60.7266 84.0067 60.8199 84.1C60.9133 84.1933 60.9599 84.3067 60.9599 84.44V85.2C60.9599 86.1333 61.3066 86.9133 61.9999 87.54C62.6933 88.1667 63.6266 88.48 64.7999 88.48C65.8399 88.48 66.6333 88.2133 67.1799 87.68C67.7266 87.1467 67.9999 86.4667 67.9999 85.64C67.9999 85.0267 67.8266 84.5 67.4799 84.06C67.1333 83.62 66.6466 83.2067 66.0199 82.82C65.3933 82.4333 64.4266 81.9067 63.1199 81.24C61.5199 80.44 60.2133 79.6933 59.1999 79C58.1866 78.3067 57.3199 77.4133 56.5999 76.32C55.8799 75.2267 55.5199 73.9067 55.5199 72.36C55.5199 70.8133 55.8866 69.46 56.6199 68.3C57.3533 67.14 58.3866 66.2467 59.7199 65.62C61.0533 64.9933 62.5733 64.68 64.2799 64.68C66.0666 64.68 67.6533 65.02 69.0399 65.7C70.4266 66.38 71.5066 67.3333 72.2799 68.56C73.0533 69.7867 73.4399 71.2 73.4399 72.8V73.6C73.4399 73.7333 73.3933 73.8467 73.2999 73.94C73.2066 74.0333 73.0933 74.08 72.9599 74.08H68.3599C68.2266 74.08 68.1133 74.0333 68.02 73.94C67.9266 73.8467 67.8799 73.7333 67.8799 73.6V72.88C67.8799 71.92 67.5466 71.12 66.8799 70.48C66.2133 69.84 65.3066 69.52 64.16 69.52C63.1999 69.52 62.4466 69.7667 61.8999 70.26C61.3533 70.7533 61.0799 71.44 61.0799 72.32C61.0799 72.9333 61.2399 73.4667 61.5599 73.92C61.8799 74.3733 62.3733 74.8067 63.0399 75.22C63.7066 75.6333 64.7199 76.1733 66.0799 76.84L66.9199 77.32C68.4666 78.1733 69.6733 78.9133 70.5399 79.54C71.4066 80.1667 72.1333 80.96 72.7199 81.92C73.3066 82.88 73.5999 84.04 73.5999 85.4C73.5999 87.8267 72.7799 89.7533 71.1399 91.18ZM85.3999 93.32C88.1199 93.32 90.2999 92.6067 91.9399 91.18C93.5799 89.7533 94.3999 87.8267 94.3999 85.4C94.3999 84.04 94.1066 82.88 93.5199 81.92C92.9333 80.96 92.2066 80.1667 91.3399 79.54C90.4733 78.9133 89.2666 78.1733 87.7199 77.32L86.8799 76.84C85.5199 76.1733 84.5066 75.6333 83.8399 75.22C83.1733 74.8067 82.6799 74.3733 82.3599 73.92C82.0399 73.4667 81.8799 72.9333 81.8799 72.32C81.8799 71.44 82.1533 70.7533 82.6999 70.26C83.2466 69.7667 83.9999 69.52 84.9599 69.52C86.1066 69.52 87.0133 69.84 87.6799 70.48C88.3466 71.12 88.6799 71.92 88.6799 72.88V73.6C88.6799 73.7333 88.7266 73.8467 88.8199 73.94C88.9133 74.0333 89.0266 74.08 89.1599 74.08H93.7599C93.8933 74.08 94.0066 74.0333 94.0999 73.94C94.1933 73.8467 94.2399 73.7333 94.2399 73.6V72.8C94.2399 71.2 93.8533 69.7867 93.0799 68.56C92.3066 67.3333 91.2266 66.38 89.8399 65.7C88.4533 65.02 86.8666 64.68 85.0799 64.68C83.3733 64.68 81.8533 64.9933 80.5199 65.62C79.1866 66.2467 78.1533 67.14 77.4199 68.3C76.6866 69.46 76.3199 70.8133 76.3199 72.36C76.3199 73.9067 76.6799 75.2267 77.3999 76.32C78.1199 77.4133 78.9866 78.3067 79.9999 79C81.0133 79.6933 82.3199 80.44 83.9199 81.24C85.2266 81.9067 86.1933 82.4333 86.8199 82.82C87.4466 83.2067 87.9333 83.62 88.2799 84.06C88.6266 84.5 88.7999 85.0267 88.7999 85.64C88.7999 86.4667 88.5266 87.1467 87.9799 87.68C87.4333 88.2133 86.6399 88.48 85.5999 88.48C84.4266 88.48 83.4933 88.1667 82.7999 87.54C82.1066 86.9133 81.7599 86.1333 81.7599 85.2V84.44C81.7599 84.3067 81.7133 84.1933 81.6199 84.1C81.5266 84.0067 81.4133 83.96 81.2799 83.96H76.6799C76.5466 83.96 76.4333 84.0067 76.3399 84.1C76.2466 84.1933 76.1999 84.3067 76.1999 84.44V85.48C76.1999 87.0267 76.5799 88.3933 77.3399 89.58C78.0999 90.7667 79.1733 91.6867 80.5599 92.34C81.9466 92.9933 83.5599 93.32 85.3999 93.32ZM111.48 92.24C110.067 92.9867 108.44 93.36 106.6 93.36C104.76 93.36 103.14 92.9867 101.74 92.24C100.34 91.4933 99.2533 90.44 98.4799 89.08C97.7066 87.72 97.3199 86.1333 97.3199 84.32V73.68C97.3199 71.8933 97.7066 70.32 98.4799 68.96C99.2533 67.6 100.34 66.5467 101.74 65.8C103.14 65.0533 104.76 64.68 106.6 64.68C108.44 64.68 110.067 65.0533 111.48 65.8C112.893 66.5467 113.987 67.6 114.76 68.96C115.533 70.32 115.92 71.8933 115.92 73.68V84.32C115.92 86.1333 115.533 87.72 114.76 89.08C113.987 90.44 112.893 91.4933 111.48 92.24ZM106.6 88.52C105.507 88.52 104.627 88.1533 103.96 87.42C103.293 86.6867 102.96 85.7333 102.96 84.56V73.52C102.96 72.32 103.293 71.3533 103.96 70.62C104.627 69.8867 105.507 69.52 106.6 69.52C107.72 69.52 108.613 69.8867 109.28 70.62C109.947 71.3533 110.28 72.32 110.28 73.52V84.56C110.28 85.7333 109.947 86.6867 109.28 87.42C108.613 88.1533 107.72 88.52 106.6 88.52ZM125.18 92.86C125.087 92.9533 124.973 93 124.84 93H120.16C120.027 93 119.913 92.9533 119.82 92.86C119.727 92.7667 119.68 92.6533 119.68 92.52V65.48C119.68 65.3467 119.727 65.2333 119.82 65.14C119.913 65.0467 120.027 65 120.16 65H129.92C131.493 65 132.893 65.3533 134.12 66.06C135.347 66.7667 136.293 67.76 136.96 69.04C137.627 70.32 137.96 71.7867 137.96 73.44C137.96 75.1467 137.587 76.6267 136.84 77.88C136.093 79.1333 135.04 80.0667 133.68 80.68C133.547 80.7333 133.507 80.8267 133.56 80.96L138.12 92.44C138.147 92.4933 138.16 92.56 138.16 92.64C138.16 92.88 138.013 93 137.72 93H132.84C132.547 93 132.36 92.8667 132.28 92.6L128.24 81.56C128.187 81.4533 128.12 81.4 128.04 81.4H125.52C125.387 81.4 125.32 81.4667 125.32 81.6V92.52C125.32 92.6533 125.273 92.7667 125.18 92.86ZM129 77.08H125.52C125.387 77.08 125.32 77.0133 125.32 76.88V70.04C125.32 69.9067 125.387 69.84 125.52 69.84H129C129.987 69.84 130.787 70.1667 131.4 70.82C132.013 71.4733 132.32 72.36 132.32 73.48C132.32 74.5733 132.013 75.4467 131.4 76.1C130.787 76.7533 129.987 77.08 129 77.08ZM156.34 91.18C154.7 92.6067 152.52 93.32 149.8 93.32C147.96 93.32 146.347 92.9933 144.96 92.34C143.573 91.6867 142.5 90.7667 141.74 89.58C140.98 88.3933 140.6 87.0267 140.6 85.48V84.44C140.6 84.3067 140.647 84.1933 140.74 84.1C140.833 84.0067 140.947 83.96 141.08 83.96H145.68C145.813 83.96 145.927 84.0067 146.02 84.1C146.113 84.1933 146.16 84.3067 146.16 84.44V85.2C146.16 86.1333 146.507 86.9133 147.2 87.54C147.893 88.1667 148.827 88.48 150 88.48C151.04 88.48 151.833 88.2133 152.38 87.68C152.927 87.1467 153.2 86.4667 153.2 85.64C153.2 85.0267 153.027 84.5 152.68 84.06C152.333 83.62 151.847 83.2067 151.22 82.82C150.593 82.4333 149.627 81.9067 148.32 81.24C146.72 80.44 145.413 79.6933 144.4 79C143.387 78.3067 142.52 77.4133 141.8 76.32C141.08 75.2267 140.72 73.9067 140.72 72.36C140.72 70.8133 141.087 69.46 141.82 68.3C142.553 67.14 143.587 66.2467 144.92 65.62C146.253 64.9933 147.773 64.68 149.48 64.68C151.267 64.68 152.853 65.02 154.24 65.7C155.627 66.38 156.707 67.3333 157.48 68.56C158.253 69.7867 158.64 71.2 158.64 72.8V73.6C158.64 73.7333 158.593 73.8467 158.5 73.94C158.407 74.0333 158.293 74.08 158.16 74.08H153.56C153.427 74.08 153.313 74.0333 153.22 73.94C153.127 73.8467 153.08 73.7333 153.08 73.6V72.88C153.08 71.92 152.747 71.12 152.08 70.48C151.413 69.84 150.507 69.52 149.36 69.52C148.4 69.52 147.647 69.7667 147.1 70.26C146.553 70.7533 146.28 71.44 146.28 72.32C146.28 72.9333 146.44 73.4667 146.76 73.92C147.08 74.3733 147.573 74.8067 148.24 75.22C148.907 75.6333 149.92 76.1733 151.28 76.84L152.12 77.32C153.667 78.1733 154.873 78.9133 155.74 79.54C156.607 80.1667 157.333 80.96 157.92 81.92C158.507 82.88 158.8 84.04 158.8 85.4C158.8 87.8267 157.98 89.7533 156.34 91.18Z" fill="white"/>
</g>
<defs>
<filter id="filter0_d" x="0.319946" y="0.68" width="161.48" height="98.68" filterUnits="userSpaceOnUse" color-interpolation-filters="sRGB">
<feFlood flood-opacity="0" result="BackgroundImageFix"/>
<feColorMatrix in="SourceAlpha" type="matrix" values="0 0 0 0 0 0 0 0 0 0 0 0 0 0 0 0 0 0 127 0"/>
<feOffset dy="3"/>
<feGaussianBlur stdDeviation="1.5"/>
<feColorMatrix type="matrix" values="0 0 0 0 0 0 0 0 0 0 0 0 0 0 0 0 0 0 0.196706 0"/>
<feBlend mode="normal" in2="BackgroundImageFix" result="effect1_dropShadow"/>
<feBlend mode="normal" in="SourceGraphic" in2="effect1_dropShadow" result="shape"/>
</filter>
</defs>
</svg>
